<svg xmlns="http://www.w3.org/2000/svg" xmlns:xlink="http://www.w3.org/1999/xlink" width="1080" zoomAndPan="magnify" viewBox="0 0 810 809.999993" height="1080" preserveAspectRatio="xMidYMid meet" version="1.0"><defs><clipPath id="9eb7715cd5"><path d="M 0 0 L 810 0 L 810 200.25 L 0 200.25 Z M 0 0 " clip-rule="nonzero"/></clipPath><clipPath id="27d9374f3f"><path d="M 0 480.109375 L 809.648438 480.109375 L 809.648438 804 L 0 804 Z M 0 480.109375 " clip-rule="nonzero"/></clipPath><clipPath id="30c6206953"><path d="M 0 158.40625 L 79.5 158.40625 L 79.5 480.15625 L 0 480.15625 Z M 0 158.40625 " clip-rule="nonzero"/></clipPath><clipPath id="af320453c4"><path d="M 728.984375 0 L 809.984375 0 L 809.984375 394.5 L 728.984375 394.5 Z M 728.984375 0 " clip-rule="nonzero"/></clipPath><clipPath id="69de9de27e"><path d="M 0 0 L 46.5 0 L 46.5 452.25 L 0 452.25 Z M 0 0 " clip-rule="nonzero"/></clipPath><clipPath id="7a50913b9f"><path d="M 756.851562 237.367188 L 809.648438 237.367188 L 809.648438 804 L 756.851562 804 Z M 756.851562 237.367188 " clip-rule="nonzero"/></clipPath><clipPath id="3c88f101e6"><path d="M 116 249 L 286 249 L 286 401.246094 L 116 401.246094 Z M 116 249 " clip-rule="nonzero"/></clipPath><clipPath id="f0d70f52fe"><path d="M 320 252 L 490 252 L 490 404.726562 L 320 404.726562 Z M 320 252 " clip-rule="nonzero"/></clipPath><clipPath id="880f1c3fc7"><path d="M 524 256 L 694 256 L 694 408.203125 L 524 408.203125 Z M 524 256 " clip-rule="nonzero"/></clipPath></defs><g clip-path="url(#9eb7715cd5)"><path fill="#737373" d="M 677.863281 -0.00390625 L 132.136719 -0.00390625 C 59.53125 -0.00390625 0.460938 59.0625 0.460938 131.667969 L 0.460938 439.433594 C 0.460938 512.039062 59.53125 571.105469 132.136719 571.105469 L 214.628906 571.105469 L 214.628906 666.292969 C 214.628906 685.390625 235.976562 696.53125 251.625 686.089844 L 424.105469 571.105469 L 677.863281 571.105469 C 750.46875 571.105469 809.539062 512.039062 809.539062 439.433594 L 809.539062 131.667969 C 809.539062 59.0625 750.46875 -0.00390625 677.863281 -0.00390625 Z M 761.945312 439.433594 C 761.945312 485.796875 724.226562 523.515625 677.863281 523.515625 L 416.898438 523.515625 C 412.199219 523.515625 407.609375 524.90625 403.699219 527.511719 L 262.222656 621.828125 L 262.222656 547.3125 C 262.222656 534.167969 251.566406 523.515625 238.425781 523.515625 L 132.136719 523.515625 C 85.773438 523.515625 48.054688 485.796875 48.054688 439.433594 L 48.054688 131.667969 C 48.054688 85.304688 85.773438 47.589844 132.136719 47.589844 L 677.863281 47.589844 C 724.226562 47.589844 761.945312 85.304688 761.945312 131.667969 Z M 761.945312 439.433594 " fill-opacity="1" fill-rule="nonzero"/></g><g clip-path="url(#27d9374f3f)"><path fill="#737373" d="M 676.949219 108.578125 L 127.445312 108.578125 C 54.339844 108.578125 -5.136719 168.054688 -5.136719 241.160156 L -5.136719 551.054688 C -5.136719 624.160156 54.339844 683.636719 127.445312 683.636719 L 210.511719 683.636719 L 210.511719 779.480469 C 210.511719 798.710938 232.007812 809.925781 247.761719 799.417969 L 421.433594 683.636719 L 676.949219 683.636719 C 750.058594 683.636719 809.53125 624.160156 809.53125 551.054688 L 809.53125 241.160156 C 809.53125 168.054688 750.058594 108.578125 676.949219 108.578125 Z M 761.609375 551.054688 C 761.609375 597.738281 723.632812 635.714844 676.949219 635.714844 L 414.179688 635.714844 C 409.449219 635.714844 404.824219 637.117188 400.886719 639.742188 L 258.433594 734.710938 L 258.433594 659.675781 C 258.433594 646.445312 247.707031 635.714844 234.472656 635.714844 L 127.445312 635.714844 C 80.761719 635.714844 42.785156 597.738281 42.785156 551.054688 L 42.785156 241.160156 C 42.785156 194.476562 80.761719 156.5 127.445312 156.5 L 676.949219 156.5 C 723.632812 156.5 761.609375 194.476562 761.609375 241.160156 Z M 761.609375 551.054688 " fill-opacity="1" fill-rule="nonzero"/></g><g clip-path="url(#30c6206953)"><path fill="#737373" d="M 672.300781 40.296875 L 126.570312 40.296875 C 53.964844 40.296875 -5.101562 99.363281 -5.101562 171.96875 L -5.101562 479.734375 C -5.101562 552.339844 53.964844 611.410156 126.570312 611.410156 L 209.066406 611.410156 L 209.066406 706.59375 C 209.066406 725.691406 230.414062 736.832031 246.0625 726.390625 L 418.539062 611.410156 L 672.300781 611.410156 C 744.90625 611.410156 803.972656 552.339844 803.972656 479.734375 L 803.972656 171.96875 C 803.972656 99.367188 744.90625 40.296875 672.300781 40.296875 Z M 756.378906 479.734375 C 756.378906 526.097656 718.664062 563.816406 672.300781 563.816406 L 411.335938 563.816406 C 406.636719 563.816406 402.042969 565.207031 398.136719 567.8125 L 256.65625 662.132812 L 256.65625 587.613281 C 256.65625 574.46875 246.003906 563.816406 232.863281 563.816406 L 126.570312 563.816406 C 80.207031 563.816406 42.492188 526.097656 42.492188 479.734375 L 42.492188 171.96875 C 42.492188 125.605469 80.207031 87.890625 126.570312 87.890625 L 672.300781 87.890625 C 718.664062 87.890625 756.378906 125.605469 756.378906 171.96875 Z M 756.378906 479.734375 " fill-opacity="1" fill-rule="nonzero"/></g><g clip-path="url(#af320453c4)"><path fill="#737373" d="M 677.863281 -0.00390625 L 132.136719 -0.00390625 C 59.53125 -0.00390625 0.460938 59.0625 0.460938 131.667969 L 0.460938 439.433594 C 0.460938 512.039062 59.53125 571.105469 132.136719 571.105469 L 214.628906 571.105469 L 214.628906 666.292969 C 214.628906 685.390625 235.976562 696.53125 251.625 686.089844 L 424.105469 571.105469 L 677.863281 571.105469 C 750.46875 571.105469 809.539062 512.039062 809.539062 439.433594 L 809.539062 131.667969 C 809.539062 59.0625 750.46875 -0.00390625 677.863281 -0.00390625 Z M 761.945312 439.433594 C 761.945312 485.796875 724.226562 523.515625 677.863281 523.515625 L 416.898438 523.515625 C 412.199219 523.515625 407.609375 524.90625 403.699219 527.511719 L 262.222656 621.828125 L 262.222656 547.3125 C 262.222656 534.167969 251.566406 523.515625 238.425781 523.515625 L 132.136719 523.515625 C 85.773438 523.515625 48.054688 485.796875 48.054688 439.433594 L 48.054688 131.667969 C 48.054688 85.304688 85.773438 47.589844 132.136719 47.589844 L 677.863281 47.589844 C 724.226562 47.589844 761.945312 85.304688 761.945312 131.667969 Z M 761.945312 439.433594 " fill-opacity="1" fill-rule="nonzero"/></g><g clip-path="url(#69de9de27e)"><path fill="#737373" d="M 677.863281 -0.00390625 L 132.136719 -0.00390625 C 59.53125 -0.00390625 0.460938 59.0625 0.460938 131.667969 L 0.460938 439.433594 C 0.460938 512.039062 59.53125 571.105469 132.136719 571.105469 L 214.628906 571.105469 L 214.628906 666.292969 C 214.628906 685.390625 235.976562 696.53125 251.625 686.089844 L 424.105469 571.105469 L 677.863281 571.105469 C 750.46875 571.105469 809.539062 512.039062 809.539062 439.433594 L 809.539062 131.667969 C 809.539062 59.0625 750.46875 -0.00390625 677.863281 -0.00390625 Z M 761.945312 439.433594 C 761.945312 485.796875 724.226562 523.515625 677.863281 523.515625 L 416.898438 523.515625 C 412.199219 523.515625 407.609375 524.90625 403.699219 527.511719 L 262.222656 621.828125 L 262.222656 547.3125 C 262.222656 534.167969 251.566406 523.515625 238.425781 523.515625 L 132.136719 523.515625 C 85.773438 523.515625 48.054688 485.796875 48.054688 439.433594 L 48.054688 131.667969 C 48.054688 85.304688 85.773438 47.589844 132.136719 47.589844 L 677.863281 47.589844 C 724.226562 47.589844 761.945312 85.304688 761.945312 131.667969 Z M 761.945312 439.433594 " fill-opacity="1" fill-rule="nonzero"/></g><g clip-path="url(#7a50913b9f)"><path fill="#737373" d="M 676.949219 108.578125 L 127.445312 108.578125 C 54.339844 108.578125 -5.136719 168.054688 -5.136719 241.160156 L -5.136719 551.054688 C -5.136719 624.160156 54.339844 683.636719 127.445312 683.636719 L 210.511719 683.636719 L 210.511719 779.480469 C 210.511719 798.710938 232.007812 809.925781 247.761719 799.417969 L 421.433594 683.636719 L 676.949219 683.636719 C 750.058594 683.636719 809.53125 624.160156 809.53125 551.054688 L 809.53125 241.160156 C 809.53125 168.054688 750.058594 108.578125 676.949219 108.578125 Z M 761.609375 551.054688 C 761.609375 597.738281 723.632812 635.714844 676.949219 635.714844 L 414.179688 635.714844 C 409.449219 635.714844 404.824219 637.117188 400.886719 639.742188 L 258.433594 734.710938 L 258.433594 659.675781 C 258.433594 646.445312 247.703125 635.714844 234.472656 635.714844 L 127.445312 635.714844 C 80.761719 635.714844 42.785156 597.738281 42.785156 551.054688 L 42.785156 241.160156 C 42.785156 194.476562 80.761719 156.5 127.445312 156.5 L 676.949219 156.5 C 723.632812 156.5 761.609375 194.476562 761.609375 241.160156 Z M 761.609375 551.054688 " fill-opacity="1" fill-rule="nonzero"/></g><g clip-path="url(#3c88f101e6)"><path fill="#737373" d="M 284.558594 286.949219 C 275.050781 238.042969 215.453125 237.226562 200.757812 282.945312 C 186.0625 237.226562 126.464844 238.042969 116.957031 286.949219 C 108.332031 331.320312 200.757812 401.324219 200.757812 401.324219 C 200.757812 401.324219 293.183594 331.320312 284.558594 286.949219 Z M 284.558594 286.949219 " fill-opacity="1" fill-rule="nonzero"/></g><g clip-path="url(#f0d70f52fe)"><path fill="#737373" d="M 488.839844 290.429688 C 479.328125 241.523438 419.734375 240.707031 405.039062 286.425781 C 390.34375 240.707031 330.746094 241.523438 321.238281 290.429688 C 312.613281 334.800781 405.039062 404.804688 405.039062 404.804688 C 405.039062 404.804688 497.464844 334.800781 488.839844 290.429688 Z M 488.839844 290.429688 " fill-opacity="1" fill-rule="nonzero"/></g><g clip-path="url(#880f1c3fc7)"><path fill="#737373" d="M 693.117188 293.910156 C 683.609375 245.003906 624.011719 244.183594 609.316406 289.90625 C 594.621094 244.1875 535.023438 245.003906 525.519531 293.910156 C 516.890625 338.28125 609.316406 408.28125 609.316406 408.28125 C 609.316406 408.28125 701.742188 338.28125 693.117188 293.910156 Z M 693.117188 293.910156 " fill-opacity="1" fill-rule="nonzero"/></g></svg>