<svg xmlns="http://www.w3.org/2000/svg" xmlns:xlink="http://www.w3.org/1999/xlink" width="1080" zoomAndPan="magnify" viewBox="0 0 810 809.999993" height="1080" preserveAspectRatio="xMidYMid meet" version="1.0"><defs><clipPath id="1fcfaf3106"><path d="M 0 68.484375 L 116.25 68.484375 L 116.25 614 L 0 614 Z M 0 68.484375 " clip-rule="nonzero"/></clipPath><clipPath id="be763faccb"><path d="M 153 187 L 450 187 L 450 453.640625 L 153 453.640625 Z M 153 187 " clip-rule="nonzero"/></clipPath><clipPath id="60bfc0ac10"><path d="M 0 0 L 614 0 L 614 222 L 0 222 Z M 0 0 " clip-rule="nonzero"/></clipPath><clipPath id="aedbf63a6e"><path d="M 471 500.445312 L 625 500.445312 L 625 625 L 471 625 Z M 471 500.445312 " clip-rule="nonzero"/></clipPath><clipPath id="e769cc36ae"><path d="M 96.136719 500.445312 L 614 500.445312 L 614 614 L 96.136719 614 Z M 96.136719 500.445312 " clip-rule="nonzero"/></clipPath><clipPath id="d951fac518"><path d="M 471 471 L 625 471 L 625 526.203125 L 471 526.203125 Z M 471 471 " clip-rule="nonzero"/></clipPath><clipPath id="004f97ad0d"><path d="M 517 517 L 683.40625 517 L 683.40625 526.203125 L 517 526.203125 Z M 517 517 " clip-rule="nonzero"/></clipPath><clipPath id="afd2b77b6f"><path d="M 409.65625 75.453125 L 614 75.453125 L 614 526.203125 L 409.65625 526.203125 Z M 409.65625 75.453125 " clip-rule="nonzero"/></clipPath><clipPath id="c6718a6235"><path d="M 91.492188 454 L 161.242188 454 L 161.242188 577 L 91.492188 577 Z M 91.492188 454 " clip-rule="nonzero"/></clipPath><clipPath id="8a750dc498"><path d="M 122 454 L 161.242188 454 L 161.242188 489 L 122 489 Z M 122 454 " clip-rule="nonzero"/></clipPath></defs><g clip-path="url(#1fcfaf3106)"><path fill="#737373" d="M 306.488281 -0.375 C 136.980469 -0.375 -0.375 136.980469 -0.375 306.488281 C -0.375 475.992188 136.980469 613.378906 306.488281 613.378906 C 475.992188 613.378906 613.378906 475.992188 613.378906 306.488281 C 613.378906 136.980469 475.992188 -0.375 306.488281 -0.375 Z M 306.488281 556.585938 C 168.316406 556.585938 56.355469 444.65625 56.355469 306.488281 C 56.355469 168.316406 168.316406 56.386719 306.488281 56.386719 C 444.65625 56.386719 556.617188 168.316406 556.617188 306.488281 C 556.617188 444.65625 444.65625 556.585938 306.488281 556.585938 Z M 306.488281 556.585938 " fill-opacity="1" fill-rule="nonzero"/></g><g clip-path="url(#be763faccb)"><path fill="#737373" d="M 448.609375 253.191406 C 431.945312 167.472656 327.484375 166.039062 301.726562 246.171875 C 275.972656 166.039062 171.511719 167.472656 154.847656 253.191406 C 139.726562 330.964844 301.726562 453.660156 301.726562 453.660156 C 301.726562 453.660156 463.726562 330.964844 448.609375 253.191406 Z M 448.609375 253.191406 " fill-opacity="1" fill-rule="nonzero"/></g><g clip-path="url(#60bfc0ac10)"><path fill="#737373" d="M 306.488281 -0.375 C 136.980469 -0.375 -0.375 136.980469 -0.375 306.488281 C -0.375 475.992188 136.980469 613.378906 306.488281 613.378906 C 475.992188 613.378906 613.378906 475.992188 613.378906 306.488281 C 613.378906 136.980469 475.992188 -0.375 306.488281 -0.375 Z M 306.488281 556.585938 C 168.316406 556.585938 56.355469 444.65625 56.355469 306.488281 C 56.355469 168.316406 168.316406 56.386719 306.488281 56.386719 C 444.65625 56.386719 556.617188 168.316406 556.617188 306.488281 C 556.617188 444.65625 444.65625 556.585938 306.488281 556.585938 Z M 306.488281 556.585938 " fill-opacity="1" fill-rule="nonzero"/></g><g clip-path="url(#aedbf63a6e)"><path fill="#737373" d="M 471.160156 521.644531 L 521.625 471.179688 L 624.082031 573.632812 L 573.617188 624.097656 Z M 471.160156 521.644531 " fill-opacity="1" fill-rule="nonzero"/></g><path fill="#737373" d="M 785.886719 678.179688 C 808.1875 700.476562 808.1875 736.664062 785.886719 758.992188 L 758.960938 785.886719 C 736.632812 808.21875 700.476562 808.21875 678.179688 785.886719 L 533.878906 641.558594 C 511.550781 619.226562 511.550781 583.074219 533.847656 560.777344 L 560.777344 533.847656 C 583.074219 511.550781 619.289062 511.550781 641.589844 533.847656 Z M 785.886719 678.179688 " fill-opacity="1" fill-rule="nonzero"/><g clip-path="url(#e769cc36ae)"><path fill="#737373" d="M 306.488281 -0.375 C 136.980469 -0.375 -0.375 136.980469 -0.375 306.488281 C -0.375 475.992188 136.980469 613.378906 306.488281 613.378906 C 475.992188 613.378906 613.378906 475.992188 613.378906 306.488281 C 613.378906 136.980469 475.992188 -0.375 306.488281 -0.375 Z M 306.488281 556.585938 C 168.316406 556.585938 56.355469 444.65625 56.355469 306.488281 C 56.355469 168.316406 168.316406 56.386719 306.488281 56.386719 C 444.65625 56.386719 556.617188 168.316406 556.617188 306.488281 C 556.617188 444.65625 444.65625 556.585938 306.488281 556.585938 Z M 306.488281 556.585938 " fill-opacity="1" fill-rule="nonzero"/></g><g clip-path="url(#d951fac518)"><path fill="#737373" d="M 471.160156 521.644531 L 521.625 471.179688 L 624.082031 573.632812 L 573.617188 624.097656 Z M 471.160156 521.644531 " fill-opacity="1" fill-rule="nonzero"/></g><g clip-path="url(#004f97ad0d)"><path fill="#737373" d="M 785.886719 678.179688 C 808.1875 700.476562 808.1875 736.664062 785.886719 758.992188 L 758.960938 785.886719 C 736.632812 808.21875 700.476562 808.21875 678.179688 785.886719 L 533.878906 641.558594 C 511.550781 619.226562 511.550781 583.074219 533.847656 560.777344 L 560.777344 533.847656 C 583.074219 511.550781 619.289062 511.550781 641.589844 533.847656 Z M 785.886719 678.179688 " fill-opacity="1" fill-rule="nonzero"/></g><g clip-path="url(#afd2b77b6f)"><path fill="#737373" d="M 306.488281 -0.375 C 136.980469 -0.375 -0.375 136.980469 -0.375 306.488281 C -0.375 475.992188 136.980469 613.378906 306.488281 613.378906 C 475.992188 613.378906 613.378906 475.992188 613.378906 306.488281 C 613.378906 136.980469 475.992188 -0.375 306.488281 -0.375 Z M 306.488281 556.585938 C 168.316406 556.585938 56.355469 444.65625 56.355469 306.488281 C 56.355469 168.316406 168.316406 56.386719 306.488281 56.386719 C 444.65625 56.386719 556.617188 168.316406 556.617188 306.488281 C 556.617188 444.65625 444.65625 556.585938 306.488281 556.585938 Z M 306.488281 556.585938 " fill-opacity="1" fill-rule="nonzero"/></g><g clip-path="url(#c6718a6235)"><path fill="#737373" d="M 306.488281 -0.375 C 136.980469 -0.375 -0.375 136.980469 -0.375 306.488281 C -0.375 475.992188 136.980469 613.378906 306.488281 613.378906 C 475.992188 613.378906 613.378906 475.992188 613.378906 306.488281 C 613.378906 136.980469 475.992188 -0.375 306.488281 -0.375 Z M 306.488281 556.585938 C 168.316406 556.585938 56.355469 444.65625 56.355469 306.488281 C 56.355469 168.316406 168.316406 56.386719 306.488281 56.386719 C 444.65625 56.386719 556.617188 168.316406 556.617188 306.488281 C 556.617188 444.65625 444.65625 556.585938 306.488281 556.585938 Z M 306.488281 556.585938 " fill-opacity="1" fill-rule="nonzero"/></g><g clip-path="url(#8a750dc498)"><path fill="#737373" d="M 369.410156 458.386719 C 247.003906 458.386719 147.707031 359.121094 147.707031 236.683594 C 147.707031 233.429688 148.050781 230.238281 148.207031 226.988281 C 132.039062 253.132812 122.5625 283.875 122.5625 316.839844 C 122.5625 411.503906 199.308594 488.21875 293.945312 488.21875 C 330.503906 488.21875 364.28125 476.710938 392.144531 457.226562 C 384.671875 458.039062 377.070312 458.386719 369.410156 458.386719 Z M 369.410156 458.386719 " fill-opacity="1" fill-rule="nonzero"/></g></svg>