<svg xmlns="http://www.w3.org/2000/svg" xmlns:xlink="http://www.w3.org/1999/xlink" width="1080" zoomAndPan="magnify" viewBox="0 0 810 809.999993" height="1080" preserveAspectRatio="xMidYMid meet" version="1.0"><path fill="#737373" d="M 439.214844 732.703125 C 364.554688 679.488281 294.664062 626.277344 234.300781 556.382812 C 175.527344 488.078125 130.253906 407.859375 104.839844 322.082031 C 94.515625 287.929688 84.984375 249.808594 90.542969 213.273438 C 100.074219 157.675781 145.34375 174.355469 177.910156 203.742188 C 249.390625 270.457031 301.015625 366.558594 341.523438 454.71875 C 359.789062 494.433594 425.710938 466.632812 412.210938 424.539062 C 413.796875 430.097656 411.414062 429.304688 413.003906 422.15625 C 414.59375 415.800781 417.769531 410.242188 420.152344 403.890625 C 428.09375 386.414062 439.214844 369.738281 449.539062 353.058594 C 470.1875 320.492188 491.632812 289.519531 515.460938 259.335938 C 554.378906 208.507812 671.132812 113.199219 721.960938 203.742188 C 749.761719 252.984375 713.226562 323.671875 689.398438 367.355469 C 651.273438 438.835938 600.445312 505.550781 549.613281 568.296875 C 505.929688 621.511719 461.453125 674.722656 411.414062 721.585938 C 386 745.410156 424.125 783.535156 449.539062 759.707031 C 575.824219 645.335938 708.460938 517.464844 777.558594 358.617188 C 807.742188 289.519531 826.007812 201.359375 770.410156 140.203125 C 679.074219 40.921875 536.90625 112.402344 465.421875 198.976562 C 434.449219 236.304688 405.855469 276.8125 380.441406 318.109375 C 358.996094 352.261719 323.253906 403.09375 337.550781 445.984375 C 361.378906 435.660156 385.207031 426.128906 408.238281 415.800781 C 379.644531 353.851562 345.492188 295.871094 305.78125 240.277344 C 271.628906 192.621094 235.09375 139.40625 184.261719 110.019531 C 135.816406 82.222656 74.660156 84.605469 35.742188 128.289062 C 3.972656 164.027344 0 217.242188 4.765625 262.515625 C 17.472656 376.886719 76.246094 484.105469 146.933594 572.265625 C 216.03125 658.046875 314.519531 743.824219 424.917969 766.855469 C 446.363281 771.621094 456.6875 745.410156 439.214844 732.703125 Z M 439.214844 732.703125 " fill-opacity="1" fill-rule="nonzero"/></svg>